<svg width="17" height="10" viewBox="0 0 17 10" fill="none" xmlns="http://www.w3.org/2000/svg">
<path d="M8.10938 3.80078H6.42187C6.42708 3.57682 6.39844 3.37891 6.33594 3.20703C6.27344 3.03255 6.17969 2.88411 6.05469 2.76172C5.93229 2.63932 5.78255 2.54687 5.60547 2.48437C5.42839 2.41927 5.22917 2.38672 5.00781 2.38672C4.58073 2.38672 4.1888 2.49349 3.83203 2.70703C3.47526 2.92057 3.17448 3.23047 2.92969 3.63672C2.6849 4.04036 2.51563 4.52865 2.42188 5.10156C2.33073 5.65365 2.33594 6.11589 2.4375 6.48828C2.53906 6.86068 2.71875 7.14193 2.97656 7.33203C3.23698 7.51953 3.5612 7.61328 3.94922 7.61328C4.1888 7.61328 4.41667 7.58333 4.63281 7.52344C4.84896 7.46094 5.04557 7.3724 5.22266 7.25781C5.40234 7.14062 5.55859 6.9987 5.69141 6.83203C5.82682 6.66536 5.93229 6.47656 6.00781 6.26562H7.70703C7.60026 6.63281 7.43359 6.98698 7.20703 7.32812C6.98307 7.66927 6.70573 7.97396 6.375 8.24219C6.04427 8.50781 5.66797 8.71875 5.24609 8.875C4.82422 9.03125 4.36198 9.10937 3.85938 9.10937C3.13281 9.10937 2.50911 8.94271 1.98828 8.60938C1.47005 8.27604 1.09635 7.79557 0.867187 7.16797C0.638021 6.54036 0.595052 5.78385 0.738281 4.89844C0.88151 4.04167 1.16146 3.3151 1.57812 2.71875C1.9974 2.11979 2.50651 1.66536 3.10547 1.35547C3.70703 1.04557 4.35026 0.890625 5.03516 0.890625C5.51172 0.890625 5.94271 0.955729 6.32813 1.08594C6.71354 1.21615 7.04167 1.40625 7.3125 1.65625C7.58594 1.90365 7.79167 2.20703 7.92969 2.56641C8.06771 2.92578 8.1276 3.33724 8.10938 3.80078ZM11.1543 1L12.3105 3.72656H12.373L14.4512 1H16.416L13.3184 5L15.1426 9H13.2324L12.0449 6.26953H11.9824L9.88867 9H7.91602L11.0918 5L9.29102 1H11.1543Z" fill="url(#paint0_radial_7_4)"/>
<defs>
<radialGradient id="paint0_radial_7_4" cx="0" cy="0" r="1" gradientUnits="userSpaceOnUse" gradientTransform="translate(8 6) rotate(45) scale(11.3137)">
<stop stop-color="#0094FF"/>
<stop offset="1" stop-color="#F10D0D" stop-opacity="0"/>
</radialGradient>
</defs>
</svg>
