<svg width="93" height="49" viewBox="0 0 93 49" fill="none" xmlns="http://www.w3.org/2000/svg">
<path d="M44.1818 17.75H34.3636C34.3939 16.447 34.2273 15.2955 33.8636 14.2955C33.5 13.2803 32.9545 12.4167 32.2273 11.7045C31.5152 10.9924 30.6439 10.4545 29.6136 10.0909C28.5833 9.71212 27.4242 9.52273 26.1364 9.52273C23.6515 9.52273 21.3712 10.1439 19.2955 11.3864C17.2197 12.6288 15.4697 14.4318 14.0455 16.7955C12.6212 19.1439 11.6364 21.9848 11.0909 25.3182C10.5606 28.5303 10.5909 31.2197 11.1818 33.3864C11.7727 35.553 12.8182 37.1894 14.3182 38.2955C15.8333 39.3864 17.7197 39.9318 19.9773 39.9318C21.3712 39.9318 22.697 39.7576 23.9545 39.4091C25.2121 39.0455 26.3561 38.5303 27.3864 37.8636C28.4318 37.1818 29.3409 36.3561 30.1136 35.3864C30.9015 34.4167 31.5152 33.3182 31.9545 32.0909H41.8409C41.2197 34.2273 40.25 36.2879 38.9318 38.2727C37.6288 40.2576 36.0152 42.0303 34.0909 43.5909C32.1667 45.1364 29.9773 46.3636 27.5227 47.2727C25.0682 48.1818 22.3788 48.6364 19.4545 48.6364C15.2273 48.6364 11.5985 47.6667 8.56818 45.7273C5.55303 43.7879 3.37879 40.9924 2.04545 37.3409C0.712121 33.6894 0.462121 29.2879 1.29545 24.1364C2.12879 19.1515 3.75758 14.9242 6.18182 11.4545C8.62121 7.9697 11.5833 5.32576 15.0682 3.52272C18.5682 1.71969 22.3106 0.81818 26.2955 0.81818C29.0682 0.81818 31.5758 1.19697 33.8182 1.95454C36.0606 2.71212 37.9697 3.81818 39.5455 5.27272C41.1364 6.71212 42.3333 8.47727 43.1364 10.5682C43.9394 12.6591 44.2879 15.053 44.1818 17.75ZM61.8977 1.45454L68.625 17.3182H68.9886L81.0795 1.45454H92.5114L74.4886 24.7273L85.1023 48H73.9886L67.0795 32.1136H66.7159L54.5341 48H43.0568L61.5341 24.7273L51.0568 1.45454H61.8977Z" fill="black"/>
</svg>
